# xmcd
# 
# Track frame offsets:
#     150
#     11299
#     23025
#     35664
#     52676
#     64910
#     80663
#     92477
#     105257
#     115667
#     128713
#     138712
#     152506
#     164411
#     177463
#     190208
#     203251
#     215116
#     243851
#     264874
# 
# Disc length: 3722
# 
# Revision: 1
# Processed by: cddbd v1.5.2PL0 Copyright (c) Steve Scherf et al.
# Submitted via: fre:ac v1.0.17
# 
DISCID=fd0e8814
DTITLE=Alexis Korner - Easy Rider
DYEAR=2014
DGENRE=Blues
TTITLE0=Easy Rider
TTITLE1=Good Morning Blues
TTITLE2=Midnight Special
TTITLE3=RK C Moanotten Break
TTITLE4=Streamline Train
TTITLE5=Frankie
TTITLE6=Ain't Gonna Worry No More
TTITLE7=County Jail
TTITLE8=Kid Man
TTITLE9=Sail On
TTITLE10=National Defence Blues
TTITLE11=Go Down Sunshine
TTITLE12=Death Letter Blues
TTITLE13=Kansas City Blues
TTITLE14=Rock Me
TTITLE15=K C Moan
TTITLE16=Streamline Train
TTITLE17=Frankie
TTITLE18=3/4 A.D.
TTITLE19=Leaving Blues
EXTD=
EXTT0=
EXTT1=
EXTT2=
EXTT3=
EXTT4=
EXTT5=
EXTT6=
EXTT7=
EXTT8=
EXTT9=
EXTT10=
EXTT11=
EXTT12=
EXTT13=
EXTT14=
EXTT15=
EXTT16=
EXTT17=
EXTT18=
EXTT19=
PLAYORDER=
